{
  "frames": [
    {
      "media_type": "video",
      "stream_index": 0,
      "key_frame": 1,
      "pkt_pts": 3,
      "pkt_pts_time": "0.003000",
      "pkt_dts": 3,
      "pkt_dts_time": "0.003000",
      "best_effort_timestamp": 3,
      "best_effort_timestamp_time": "0.003000",
      "pkt_duration": 33,
      "pkt_duration_time": "0.033000",
      "pkt_pos": "5026",
      "pkt_size": "12825",
      "width": 640,
      "height": 480,
      "pix_fmt": "yuv444p",
      "sample_aspect_ratio": "1:1",
      "pict_type": "I",
      "coded_picture_number": 0,
      "display_picture_number": 0,
      "interlaced_frame": 0,
      "top_field_first": 0,
      "repeat_pict": 0,
      "chroma_location": "left"
    },
    {
      "media_type": "audio",
      "stream_index": 1,
      "key_frame": 1,
      "pkt_pts": 179995,
      "pkt_pts_time": "179.995000",
      "pkt_dts": 179995,
      "pkt_dts_time": "179.995000",
      "best_effort_timestamp": 179995,
      "best_effort_timestamp_time": "179.995000",
      "pkt_duration": 2,
      "pkt_duration_time": "0.002000",
      "pkt_pos": "6077212",
      "pkt_size": "36",
      "sample_fmt": "fltp",
      "nb_samples": 128,
      "channels": 1,
      "channel_layout": "mono"
    },
    {
      "media_type": "subtitle",
      "pts": 10801000000,
      "pts_time": "10801.000000",
      "format": 1,
      "start_display_time": 0,
      "end_display_time": 1000,
      "num_rects": 1
    }
  ],
  "packets": [
    {
      "codec_type": "audio",
      "stream_index": 1,
      "pts": 0,
      "pts_time": "0.000000",
      "dts": 0,
      "dts_time": "0.000000",
      "duration": 2,
      "duration_time": "0.002000",
      "size": "45",
      "pos": "4974",
      "flags": "K_"
    },
    {
      "codec_type": "video",
      "stream_index": 0,
      "pts": 3,
      "pts_time": "0.003000",
      "dts": 3,
      "dts_time": "0.003000",
      "duration": 33,
      "duration_time": "0.033000",
      "size": "12825",
      "pos": "5026",
      "flags": "K_"
    },
    {
      "codec_type": "subtitle",
      "stream_index": 2,
      "pts": 10802000,
      "pts_time": "10802.000000",
      "dts": 10802000,
      "dts_time": "10802.000000",
      "duration": 1000,
      "duration_time": "1.000000",
      "size": "21",
      "pos": "6077424",
      "flags": "K_"
    }
  ],
  "packets_and_frames": [
    {
      "type": "packet",
      "codec_type": "audio",
      "stream_index": 1,
      "pts": 0,
      "pts_time": "0.000000",
      "dts": 0,
      "dts_time": "0.000000",
      "duration": 2,
      "duration_time": "0.002000",
      "size": "45",
      "pos": "4974",
      "flags": "K_"
    },
    {
      "type": "packet",
      "codec_type": "video",
      "stream_index": 0,
      "pts": 3,
      "pts_time": "0.003000",
      "dts": 3,
      "dts_time": "0.003000",
      "duration": 33,
      "duration_time": "0.033000",
      "size": "12825",
      "pos": "5026",
      "flags": "K_"
    },
    {
      "type": "frame",
      "media_type": "video",
      "stream_index": 0,
      "key_frame": 1,
      "pkt_pts": 3,
      "pkt_pts_time": "0.003000",
      "pkt_dts": 3,
      "pkt_dts_time": "0.003000",
      "best_effort_timestamp": 3,
      "best_effort_timestamp_time": "0.003000",
      "pkt_duration": 33,
      "pkt_duration_time": "0.033000",
      "pkt_pos": "5026",
      "pkt_size": "12825",
      "width": 640,
      "height": 480,
      "pix_fmt": "yuv444p",
      "sample_aspect_ratio": "1:1",
      "pict_type": "I",
      "coded_picture_number": 0,
      "display_picture_number": 0,
      "interlaced_frame": 0,
      "top_field_first": 0,
      "repeat_pict": 0,
      "chroma_location": "left"
    },
    {
      "type": "frame",
      "media_type": "audio",
      "stream_index": 1,
      "key_frame": 1,
      "pkt_pts": 3,
      "pkt_pts_time": "0.003000",
      "pkt_dts": 3,
      "pkt_dts_time": "0.003000",
      "best_effort_timestamp": 3,
      "best_effort_timestamp_time": "0.003000",
      "pkt_duration": 2,
      "pkt_duration_time": "0.002000",
      "pkt_pos": "17857",
      "pkt_size": "45",
      "sample_fmt": "fltp",
      "nb_samples": 128,
      "channels": 1,
      "channel_layout": "mono"
    },
    {
      "type": "packet",
      "codec_type": "subtitle",
      "stream_index": 2,
      "pts": 10801000,
      "pts_time": "10801.000000",
      "dts": 10801000,
      "dts_time": "10801.000000",
      "duration": 1000,
      "duration_time": "1.000000",
      "size": "21",
      "pos": "6077391",
      "flags": "K_"
    },
    {
      "type": "subtitle",
      "media_type": "subtitle",
      "pts": 10801000000,
      "pts_time": "10801.000000",
      "format": 1,
      "start_display_time": 0,
      "end_display_time": 1000,
      "num_rects": 1
    }
  ]
}